<svg width="15" height="14" viewBox="0 0 15 14" fill="none" xmlns="http://www.w3.org/2000/svg">
<path d="M5.29412 0H8.82353V3.5H5.29412V0ZM0 10.5H3.52941V14H0V10.5ZM0 5.25H3.52941V8.75H0V5.25ZM0 0H3.52941V3.5H0V0ZM10.5882 0H14.1176V3.5H10.5882V0ZM6.17647 12.1275V14H8.02941L13.3059 8.77625L11.4353 6.92125L6.17647 12.1275ZM8.82353 7.02625V5.25H5.29412V8.75H7.08529L8.82353 7.02625ZM14.8676 6.615L13.6235 5.38125C13.4471 5.20625 13.1735 5.20625 12.9971 5.38125L12.0618 6.30875L13.9324 8.16375L14.8676 7.23625C15.0441 7.06125 15.0441 6.79 14.8676 6.615Z" fill="black"/>
</svg>
