<svg width="12" height="12" viewBox="0 0 12 12" fill="none" xmlns="http://www.w3.org/2000/svg">
<path d="M6 0C2.688 0 0 2.688 0 6C0 9.312 2.688 12 6 12C9.312 12 12 9.312 12 6C12 2.688 9.312 0 6 0ZM6 1.8C6.996 1.8 7.8 2.604 7.8 3.6C7.8 4.596 6.996 5.4 6 5.4C5.004 5.4 4.2 4.596 4.2 3.6C4.2 2.604 5.004 1.8 6 1.8ZM6 10.32C5.28712 10.32 4.58531 10.1436 3.95717 9.80648C3.32902 9.46938 2.79407 8.98207 2.4 8.388C2.418 7.194 4.8 6.54 6 6.54C7.194 6.54 9.582 7.194 9.6 8.388C9.20593 8.98207 8.67098 9.46938 8.04283 9.80648C7.41469 10.1436 6.71288 10.32 6 10.32Z" fill="black"/>
</svg>
