<svg width="11" height="11" viewBox="0 0 11 11" fill="none" xmlns="http://www.w3.org/2000/svg">
<path d="M0.611111 6.11111H4.27778C4.43985 6.11111 4.59529 6.04673 4.7099 5.93212C4.8245 5.81751 4.88889 5.66208 4.88889 5.5V0.611111C4.88889 0.449034 4.8245 0.293596 4.7099 0.17899C4.59529 0.0643847 4.43985 0 4.27778 0H0.611111C0.449034 0 0.293596 0.0643847 0.17899 0.17899C0.0643847 0.293596 0 0.449034 0 0.611111V5.5C0 5.66208 0.0643847 5.81751 0.17899 5.93212C0.293596 6.04673 0.449034 6.11111 0.611111 6.11111ZM0 10.3889C0 10.551 0.0643847 10.7064 0.17899 10.821C0.293596 10.9356 0.449034 11 0.611111 11H4.27778C4.43985 11 4.59529 10.9356 4.7099 10.821C4.8245 10.7064 4.88889 10.551 4.88889 10.3889V7.94444C4.88889 7.78237 4.8245 7.62693 4.7099 7.51232C4.59529 7.39772 4.43985 7.33333 4.27778 7.33333H0.611111C0.449034 7.33333 0.293596 7.39772 0.17899 7.51232C0.0643847 7.62693 0 7.78237 0 7.94444V10.3889ZM6.11111 10.3889C6.11111 10.551 6.1755 10.7064 6.2901 10.821C6.40471 10.9356 6.56015 11 6.72222 11H10.3889C10.551 11 10.7064 10.9356 10.821 10.821C10.9356 10.7064 11 10.551 11 10.3889V6.11111C11 5.94903 10.9356 5.7936 10.821 5.67899C10.7064 5.56438 10.551 5.5 10.3889 5.5H6.72222C6.56015 5.5 6.40471 5.56438 6.2901 5.67899C6.1755 5.7936 6.11111 5.94903 6.11111 6.11111V10.3889ZM6.72222 4.27778H10.3889C10.551 4.27778 10.7064 4.21339 10.821 4.09879C10.9356 3.98418 11 3.82874 11 3.66667V0.611111C11 0.449034 10.9356 0.293596 10.821 0.17899C10.7064 0.0643847 10.551 0 10.3889 0H6.72222C6.56015 0 6.40471 0.0643847 6.2901 0.17899C6.1755 0.293596 6.11111 0.449034 6.11111 0.611111V3.66667C6.11111 3.82874 6.1755 3.98418 6.2901 4.09879C6.40471 4.21339 6.56015 4.27778 6.72222 4.27778Z" fill="black"/>
</svg>
