<svg width="12" height="12" viewBox="0 0 12 12" fill="none" xmlns="http://www.w3.org/2000/svg">
<path d="M2.66557 1.21079L0 2.41664V7.24005V12H5.71194H11.4239V7.24005V2.41664L8.50444 1.21079C6.91779 0.512664 5.585 -0.0585299 5.52154 0.00493622C5.45807 0.00493622 4.18875 0.57613 2.66557 1.21079ZM7.93324 2.28971C10.0911 3.30517 10.1546 3.4321 10.1546 7.04966V10.7307H5.71194H1.26932V7.04966C1.26932 3.49556 1.33278 3.30517 3.3637 2.28971C4.44262 1.78198 5.45807 1.27425 5.52154 1.27425C5.585 1.21079 6.66392 1.71852 7.93324 2.28971Z" fill="black"/>
<path d="M2.53906 4.3839C2.53906 4.70122 2.85639 5.01855 3.17372 5.01855C3.55452 5.01855 3.80838 4.70122 3.80838 4.3839C3.80838 4.0031 3.55452 3.74924 3.17372 3.74924C2.85639 3.74924 2.53906 4.0031 2.53906 4.3839Z" fill="black"/>
<path d="M5.07715 4.3839C5.07715 4.70122 5.39448 5.01855 5.71181 5.01855C6.0926 5.01855 6.34647 4.70122 6.34647 4.3839C6.34647 4.0031 6.0926 3.74924 5.71181 3.74924C5.39448 3.74924 5.07715 4.0031 5.07715 4.3839Z" fill="black"/>
<path d="M7.61621 4.3839C7.61621 4.70122 7.93354 5.01855 8.25087 5.01855C8.63167 5.01855 8.88553 4.70122 8.88553 4.3839C8.88553 4.0031 8.63167 3.74924 8.25087 3.74924C7.93354 3.74924 7.61621 4.0031 7.61621 4.3839Z" fill="black"/>
<path d="M2.53906 6.92271C2.53906 7.24004 2.85639 7.55737 3.17372 7.55737C3.55452 7.55737 3.80838 7.24004 3.80838 6.92271C3.80838 6.54192 3.55452 6.28805 3.17372 6.28805C2.85639 6.28805 2.53906 6.54192 2.53906 6.92271Z" fill="black"/>
<path d="M5.07715 6.92271C5.07715 7.24004 5.39448 7.55737 5.71181 7.55737C6.0926 7.55737 6.34647 7.24004 6.34647 6.92271C6.34647 6.54192 6.0926 6.28805 5.71181 6.28805C5.39448 6.28805 5.07715 6.54192 5.07715 6.92271Z" fill="black"/>
<path d="M7.61621 6.92271C7.61621 7.24004 7.93354 7.55737 8.25087 7.55737C8.63167 7.55737 8.88553 7.24004 8.88553 6.92271C8.88553 6.54192 8.63167 6.28805 8.25087 6.28805C7.93354 6.28805 7.61621 6.54192 7.61621 6.92271Z" fill="black"/>
<path d="M2.53906 9.46147C2.53906 9.7788 2.85639 10.0961 3.17372 10.0961C3.55452 10.0961 3.80838 9.7788 3.80838 9.46147C3.80838 9.08068 3.55452 8.82681 3.17372 8.82681C2.85639 8.82681 2.53906 9.08068 2.53906 9.46147Z" fill="black"/>
<path d="M5.07715 9.46147C5.07715 9.7788 5.39448 10.0961 5.71181 10.0961C6.0926 10.0961 6.34647 9.7788 6.34647 9.46147C6.34647 9.08068 6.0926 8.82681 5.71181 8.82681C5.39448 8.82681 5.07715 9.08068 5.07715 9.46147Z" fill="black"/>
<path d="M7.61621 9.46147C7.61621 9.7788 7.93354 10.0961 8.25087 10.0961C8.63167 10.0961 8.88553 9.7788 8.88553 9.46147C8.88553 9.08068 8.63167 8.82681 8.25087 8.82681C7.93354 8.82681 7.61621 9.08068 7.61621 9.46147Z" fill="black"/>
</svg>
