<svg width="14" height="15" viewBox="0 0 14 15" fill="none" xmlns="http://www.w3.org/2000/svg">
<path d="M13 3.25L12.25 8.5H2.5" stroke="black" stroke-linecap="round" stroke-linejoin="round"/>
<path d="M2.5 14.5C3.32843 14.5 4 13.8284 4 13C4 12.1716 3.32843 11.5 2.5 11.5C1.67157 11.5 1 12.1716 1 13C1 13.8284 1.67157 14.5 2.5 14.5Z" stroke="black" stroke-linecap="round" stroke-linejoin="round"/>
<path d="M10.75 14.5C11.5784 14.5 12.25 13.8284 12.25 13C12.25 12.1716 11.5784 11.5 10.75 11.5C9.92157 11.5 9.25 12.1716 9.25 13C9.25 13.8284 9.92157 14.5 10.75 14.5Z" stroke="black" stroke-linecap="round" stroke-linejoin="round"/>
<path d="M10.75 11.5H2.5V1H1" stroke="black" stroke-linecap="round" stroke-linejoin="round"/>
<path d="M5.5 6.25L10 1.75" stroke="black" stroke-linecap="round" stroke-linejoin="round"/>
<path d="M5.875 2.5C6.08211 2.5 6.25 2.33211 6.25 2.125C6.25 1.91789 6.08211 1.75 5.875 1.75C5.66789 1.75 5.5 1.91789 5.5 2.125C5.5 2.33211 5.66789 2.5 5.875 2.5Z" stroke="black" stroke-linecap="round" stroke-linejoin="round"/>
<path d="M9.625 6.25C9.83211 6.25 10 6.08211 10 5.875C10 5.66789 9.83211 5.5 9.625 5.5C9.41789 5.5 9.25 5.66789 9.25 5.875C9.25 6.08211 9.41789 6.25 9.625 6.25Z" stroke="black" stroke-linecap="round" stroke-linejoin="round"/>
</svg>
