<svg width="13" height="13" viewBox="0 0 13 13" fill="none" xmlns="http://www.w3.org/2000/svg">
<path fill-rule="evenodd" clip-rule="evenodd" d="M3.75002 1.49449L3.76939 1.40998C3.80636 1.25293 3.86693 1.02193 3.99193 0.794456C4.1194 0.562755 4.31695 0.327884 4.62682 0.173299C4.93564 0.0194179 5.32263 -0.0379793 5.80118 0.0254041C6.32937 0.0958301 7.39034 0.270487 8.32771 0.747271C9.27036 1.22687 10.1535 2.05191 10.1535 3.42592C10.1535 4.13582 9.87884 4.89748 9.61263 5.39398C9.48481 5.63272 9.33304 5.8609 9.18092 5.9838C9.14606 6.01197 9.09641 6.04718 9.03479 6.07183C8.86575 6.62734 8.52927 7.11708 8.07135 7.4741C7.61342 7.83112 7.0564 8.03799 6.47644 8.06643C5.89649 8.09487 5.3219 7.94348 4.83124 7.63298C4.34058 7.32248 3.9578 6.86801 3.73523 6.3317L3.72678 6.33311L3.60177 6.18134L3.87362 5.95739L3.60177 6.18134L3.60142 6.18064L3.60071 6.17993L3.59895 6.17747L3.59297 6.17043C3.56283 6.13292 3.53383 6.09452 3.50599 6.05528C3.42996 5.94982 3.35829 5.84127 3.29119 5.72991C3.12569 5.45595 2.92603 5.06579 2.79821 4.61049C2.67074 4.15519 2.61229 3.62136 2.7461 3.07063C2.87638 2.53468 3.18379 2.00719 3.74051 1.53604L3.75002 1.49449ZM4.3416 5.94471C4.49432 6.3839 4.78759 6.76048 5.17599 7.01613C5.5644 7.27177 6.02626 7.39222 6.49004 7.35881C6.95382 7.3254 7.39365 7.14 7.74141 6.83133C8.08916 6.52266 8.32543 6.10793 8.41363 5.65139L8.45342 5.66477C8.45202 5.64484 8.45131 5.62488 8.45131 5.60491C8.45131 5.02213 8.37032 4.61542 8.29496 4.36189C8.28025 4.31254 8.26392 4.26368 8.24601 4.2154L8.23158 4.2161H8.21749C7.95418 4.22179 7.69095 4.20174 7.43154 4.15624C6.82693 4.05412 6.00823 3.79918 5.0441 3.20866C5.02297 3.25585 5.00184 3.30902 4.98071 3.36818C4.91169 3.56361 4.855 3.79566 4.80606 4.04074C4.76274 4.2566 4.72718 4.47386 4.69337 4.67739L4.68035 4.75768C4.64408 4.976 4.60781 5.19045 4.56555 5.34574C4.4916 5.61547 4.41625 5.80703 4.3416 5.94436V5.94471ZM3.84861 5.28869C3.71586 5.05769 3.57078 4.75698 3.47676 4.42069C3.37148 4.04532 3.33274 3.63896 3.43064 3.23718C3.52571 2.84632 3.75565 2.43538 4.22856 2.04593C4.31378 1.98818 4.35251 1.91071 4.36308 1.88993V1.88958C4.38157 1.85151 4.39642 1.81178 4.40745 1.77091C4.41871 1.73077 4.43104 1.67584 4.44266 1.62654L4.45498 1.57126C4.48843 1.42935 4.53175 1.27476 4.60922 1.13356C4.68457 0.996931 4.78775 0.880024 4.94127 0.803612C5.09551 0.726495 5.33425 0.673676 5.70821 0.723678C6.21986 0.791639 7.18223 0.954676 8.00833 1.37512C8.82879 1.79239 9.44924 2.42411 9.44924 3.42592C9.44924 3.88721 9.29431 4.41189 9.10768 4.82564C9.07246 4.55591 9.02176 4.33548 8.96964 4.16082C8.93332 4.03599 8.88801 3.91395 8.83407 3.79566C8.81374 3.75182 8.79141 3.70894 8.76717 3.66713L8.76118 3.65763L8.75907 3.6541L8.75801 3.65234L8.75731 3.65129L8.46152 3.84144L8.75731 3.65129L8.62702 3.44916L8.39391 3.496L8.38898 3.49705L8.35482 3.50163C8.30242 3.50747 8.24978 3.511 8.19707 3.5122C7.97996 3.51639 7.76296 3.49941 7.54915 3.46149C6.98116 3.36571 6.14662 3.10478 5.13283 2.42975L4.88634 2.2653L4.68246 2.4801C4.51449 2.65687 4.4004 2.89808 4.31695 3.13295C4.23173 3.37416 4.16729 3.64354 4.11553 3.902C4.06975 4.13089 4.03172 4.36083 3.99862 4.56401L3.98524 4.64289C3.94756 4.87212 3.91693 5.04713 3.88594 5.16052C3.87326 5.207 3.86094 5.24996 3.84861 5.28869ZM8.73653 5.43729L8.73794 5.43659L8.73653 5.43729ZM8.73794 5.43659L8.73653 5.43729L8.73759 5.43659H8.73794Z" fill="black"/>
<path fill-rule="evenodd" clip-rule="evenodd" d="M4.19528 8.37134C4.12063 8.22275 4.02872 8.03929 3.87343 8.07485C1.97052 8.50797 0 9.75838 0 11.088V13.0001H12.6767V11.088C12.6767 10.0408 11.4541 9.0425 10.0051 8.4541L10.0033 8.45057C10.0017 8.44739 10.0001 8.44422 9.99838 8.44107L9.98676 8.4467C9.60188 8.29176 9.20116 8.165 8.80325 8.07485C8.62613 8.03436 8.44302 8.27803 8.36309 8.4305H4.22556C4.2157 8.41219 4.20584 8.39177 4.19528 8.37134ZM8.94516 8.83616C9.09904 8.87876 9.25222 8.92665 9.40328 8.97947C9.40751 9.0999 9.39835 9.24216 9.37863 9.38724C9.35855 9.53745 9.32653 9.68581 9.28285 9.83092H8.80325C8.73787 9.83096 8.6738 9.84919 8.6182 9.88359C8.5626 9.91798 8.51767 9.96717 8.48845 10.0257L8.13632 10.7299C8.11183 10.7788 8.09905 10.8327 8.09899 10.8873V11.5916C8.09899 11.685 8.13609 11.7745 8.20213 11.8406C8.26817 11.9066 8.35773 11.9437 8.45112 11.9437H9.15538V11.2394H8.80325V10.9704L9.02087 10.5352H9.99416L10.2118 10.9704V11.2394H9.85964V11.9437H10.5639C10.6573 11.9437 10.7469 11.9066 10.8129 11.8406C10.8789 11.7745 10.916 11.685 10.916 11.5916V10.8873C10.916 10.8327 10.9032 10.7788 10.8787 10.7299L10.5266 10.0257C10.4974 9.96717 10.4524 9.91798 10.3968 9.88359C10.3412 9.84919 10.2771 9.83096 10.2118 9.83092H10.0125C10.056 9.64457 10.0852 9.45516 10.0998 9.26435C10.4431 9.42668 10.7622 9.61295 11.0386 9.81437C11.7154 10.3081 11.9724 10.7701 11.9724 11.088V12.2958H0.70426V11.088C0.70426 10.7701 0.961315 10.3081 1.63811 9.81437C1.97827 9.56612 2.38427 9.34146 2.81951 9.15554C2.82408 9.2647 2.83465 9.37527 2.84908 9.48231C2.87338 9.65838 2.90965 9.83374 2.95367 9.98445L2.95648 9.99431C2.74597 10.1275 2.58929 10.3308 2.51412 10.5683C2.43894 10.8058 2.45012 11.0622 2.54566 11.2922C2.64121 11.5223 2.81498 11.7112 3.03628 11.8255C3.25758 11.9399 3.51218 11.9724 3.7551 11.9172C3.99803 11.8621 4.21365 11.7229 4.36389 11.5242C4.51413 11.3255 4.58932 11.0801 4.57618 10.8313C4.56304 10.5826 4.46241 10.3465 4.29207 10.1647C4.12173 9.98292 3.89263 9.8672 3.64525 9.83797C3.60026 9.69064 3.56728 9.5399 3.54665 9.38724C3.52705 9.25071 3.51892 9.11278 3.52236 8.9749C3.52341 8.94532 3.52553 8.91926 3.52764 8.89602C3.56989 8.88299 3.61215 8.87031 3.65441 8.85834L3.80054 9.13511H8.78811L8.94516 8.83651V8.83616ZM3.5213 11.2451C3.71075 11.2451 3.87343 11.0901 3.87343 10.8877C3.87343 10.6855 3.71075 10.5303 3.5213 10.5303C3.33185 10.5303 3.16917 10.6852 3.16917 10.8877C3.16917 11.0898 3.33185 11.2451 3.5213 11.2451Z" fill="black"/>
</svg>
