<svg width="14" height="8" viewBox="0 0 14 8" fill="none" xmlns="http://www.w3.org/2000/svg">
<path d="M12.1748 3.49629V4.44981H1.04881V1.03125H0V7.86947H1.04881V6.30672H12.1748V8.00002H13.2203V3.49519L12.1748 3.49629Z" fill="black"/>
<path d="M4.7973 3.50633V3.50688C4.7973 3.81756 4.54556 4.06984 4.23433 4.06984H2.08933C1.94003 4.06984 1.79683 4.01053 1.69126 3.90496C1.58568 3.79938 1.52637 3.65619 1.52637 3.50688V3.50578C1.52637 3.1951 1.7781 2.94281 2.08933 2.94281H4.23433C4.54501 2.94281 4.7973 3.19455 4.7973 3.50578V3.50633Z" fill="black"/>
<path d="M10.8755 1.3022H9.56998V0H8.64455V1.30275H7.3418V2.22818H8.644V3.53093H9.56942V2.22818H10.8749L10.8755 1.3022Z" fill="black"/>
</svg>
